<svg xmlns="http://www.w3.org/2000/svg" width="33" height="21" viewBox="0 0 33 21">
    <path fill="#D13F2C" fill-rule="evenodd" d="M10.813 8.166h9.76c.68 4.879-1.37 12.197-9.76 12.197C5.2 20.363.649 15.805.649 10.181.649 4.558 5.199 0 10.813 0c2.633 0 5.033 1.003 6.838 2.65-2.126 2.012-2.057 2.132-2.892 2.97-1.045-.866-2.184-1.487-3.946-1.487-3.335 0-5.938 2.708-5.938 6.048 0 3.341 2.603 6.05 5.938 6.05 3.294 0 4.633-1.424 5.494-4.039-1.59 0-5.494.006-5.494.006V8.166zm18.314.201h3.522v2.52h-3.522v3.63H26.61v-3.63h-3.623v-2.52h3.623V4.839h2.516v3.528z"/>
</svg>
