<svg xmlns="http://www.w3.org/2000/svg" width="105" height="180" viewBox="0 0 105 180">
    <path fill="#F50049" fill-rule="evenodd" d="M7.83 137.408l-2.285-2.772s-13.697-16.615 2.915-30.31l36.066-29.73c-2.089-1.273-4.176-3.062-6.2-5.518l-2.284-2.772s-13.698-16.614 2.914-30.309l36.747-29.9s16.614-13.691 30.31 2.924l2.286 2.773s6.207 7.531 5.195 16.63c3.79.907 7.763 3.181 11.516 7.735l2.286 2.773s1.372 1.666 2.72 4.375c5.65-2.864 15.601-5.4 24.652 5.012l2.269 2.61s9.14 10.52 3.812 21.804c3.958 1.158 8.088 3.615 12.122 8.056l2.872 3.16s15.803 17.404.463 34.006l12.531 14.416L163.091 130l-47.254 42.703s-18.958 17.218-36.182-1.745l-2.871-3.16s-7.242-7.978-7.163-18.283c-5.279.805-11.68-.402-17.684-7.31l-2.27-2.61s-1.974-2.272-3.553-5.836l-7.974 6.574s-16.612 13.694-30.31-2.924"/>
</svg>
