<svg xmlns="http://www.w3.org/2000/svg" width="21" height="21" viewBox="0 0 21 21">
    <path fill="#F90049" fill-rule="evenodd" d="M20.501 18.224l-4.315-4.315c1.04-1.5 1.56-3.174 1.56-5.02 0-1.199-.232-2.345-.698-3.44a8.853 8.853 0 0 0-1.887-2.83A8.853 8.853 0 0 0 12.33.73 8.704 8.704 0 0 0 8.889.033c-1.199 0-2.346.233-3.44.698a8.853 8.853 0 0 0-2.83 1.887A8.854 8.854 0 0 0 .73 5.45a8.702 8.702 0 0 0-.698 3.44c0 1.2.232 2.347.698 3.442a8.853 8.853 0 0 0 1.887 2.83 8.855 8.855 0 0 0 2.83 1.887 8.702 8.702 0 0 0 3.441.698c1.846 0 3.52-.52 5.02-1.56l4.315 4.303c.302.318.68.478 1.132.478.436 0 .814-.16 1.133-.478.318-.319.478-.697.478-1.133a1.54 1.54 0 0 0-.466-1.132zm-7.63-5.353c-1.103 1.103-2.43 1.655-3.982 1.655-1.551 0-2.878-.552-3.981-1.655-1.103-1.103-1.655-2.43-1.655-3.981 0-1.552.552-2.88 1.655-3.982 1.103-1.103 2.43-1.654 3.981-1.654 1.552 0 2.88.551 3.982 1.654 1.103 1.103 1.655 2.43 1.655 3.982 0 1.551-.552 2.878-1.655 3.981z"/>
</svg>
