<svg xmlns="http://www.w3.org/2000/svg" width="69" height="28" viewBox="0 0 69 28">
    <g fill="none" fill-rule="evenodd">
        <path fill="#242424" d="M61.715.44c2.754.246 3.442.642 4.167 1.273 1.877 1.636 2.296 6.063 2.358 10.468.014.948.014 1.899 0 2.847-.062 4.405-.48 8.833-2.358 10.468-.725.631-1.413 1.028-4.167 1.274-3.446.307-8.113.35-11.641.356-1.456.002-2.913.002-4.369 0-3.528-.005-8.195-.049-11.641-.356-2.754-.246-3.443-.643-4.167-1.274-1.894-1.65-2.304-6.14-2.36-10.582-.01-.834-.01-1.67-.002-2.505.051-4.48.452-9.032 2.362-10.696C30.62 1.082 31.31.686 34.064.44 37.51.132 42.177.089 45.705.083c1.456-.002 2.913-.002 4.369 0 0 0 8.195.049 11.64.357z"/>
        <path fill="#1A1919" d="M22.773 21.996h2.37V8.821h-2.37v10.042c-1.705 1.987-2.135.502-2.135-.244V8.821h-2.37v10.266c0 1.676.419 2.745 1.484 2.914.71.113 1.736.001 3.021-1.57v1.565zm-19.157 0h2.672v-7.07L9.466 4.386H6.794L4.95 11.01 3.105 4.387H.433l3.183 10.554v7.055zm9.287-13.324a3.556 3.556 0 0 1 3.545 3.546v6.233a3.556 3.556 0 0 1-3.545 3.545 3.556 3.556 0 0 1-3.546-3.545v-6.233a3.556 3.556 0 0 1 3.546-3.546zM11.77 18.77c0 .623.51 1.133 1.133 1.133.622 0 1.132-.51 1.132-1.133v-6.85c0-.622-.51-1.132-1.132-1.132-.623 0-1.133.51-1.133 1.133v6.85z"/>
        <path fill="#242424" d="M60.499 16.138v2.632c0 .426.35.776.776.776a.78.78 0 0 0 .776-.776v-1.822h3.126v1.503a3.912 3.912 0 0 1-3.902 3.901 3.912 3.912 0 0 1-3.902-3.901v-6.233a3.912 3.912 0 0 1 3.902-3.902 3.912 3.912 0 0 1 3.902 3.902v3.92h-4.678zm-4.318 2.386c.07.534.029 1.21-.09 1.724-.263 1.147-.965 1.962-2.182 2.102a2.69 2.69 0 0 1-1.927-.494 3.419 3.419 0 0 1-.38-.318v.814H48.52V4.031h3.083v5.151c.583-.493 1.296-.866 2.044-.866 2.048 0 2.535 1.72 2.535 3.475v6.733zm-4.579.605c.205.2.496.388.771.38.137-.004.293-.026.409-.106.256-.175.285-.635.285-.911 0-3.008.018-6.22.018-6.22v-.013l.001-.013a1.746 1.746 0 0 0-.073-.597c-.097-.301-.27-.483-.598-.505-.318-.021-.599.18-.813.405v7.58zm-7.563 2.214c-.74.7-1.637 1.182-2.721 1.01-1.548-.246-1.785-1.98-1.785-3.266V8.464h3.083V18.62c0 .148.019.304.055.447.032.126.106.338.223.41.092.055.226.003.312-.038.293-.14.603-.45.833-.708V8.464h3.082v13.888H44.04v-1.01zM33.723 7.257h-2.8V4.03h8.985v3.226h-2.8v15.095h-3.385V7.257zM62.05 13.42v-1.5a.78.78 0 0 0-.776-.776.78.78 0 0 0-.776.776v1.5h1.552z"/>
        <path fill="#FFFFFE" d="M48.876 21.996h2.37v-1.4c.45.555 1.192 1.565 2.622 1.4 2.394-.276 1.957-3.448 1.957-3.448V11.79c0-2.228-.787-3.119-2.18-3.119-1.138 0-2.09 1.005-2.4 1.372V4.387h-2.37v17.61zm2.37-2.724v-7.86c.302-.352.707-.656 1.193-.624 1.114.075 1.002 1.485 1.002 1.485s-.018 5.216-.018 6.219c0 1.002-.39 1.355-1.04 1.374-.555.015-1.015-.456-1.137-.594zM46.765 21.996V8.821h-2.37v10.042c-1.706 1.987-2.135.502-2.135-.244V8.821h-2.37v10.266c0 1.676.418 2.745 1.484 2.914.71.113 1.736.001 3.021-1.57v1.565h2.37zM34.08 21.996h2.671V6.9h2.8V4.387H31.28V6.9h2.8v15.096M61.275 8.672a3.556 3.556 0 0 1 3.546 3.546v3.564h-4.678v2.988c0 .623.51 1.133 1.132 1.133.623 0 1.132-.51 1.132-1.133v-1.466h2.414v1.147a3.556 3.556 0 0 1-3.546 3.545 3.556 3.556 0 0 1-3.545-3.545v-6.233a3.556 3.556 0 0 1 3.545-3.546zm1.132 5.105V11.92c0-.623-.51-1.133-1.132-1.133-.623 0-1.132.51-1.132 1.133v1.856h2.264z"/>
    </g>
</svg>
