<svg xmlns="http://www.w3.org/2000/svg" width="25" height="21" viewBox="0 0 25 21">
    <path fill="#6BCFF4" fill-rule="evenodd" d="M24.286.384c-.987.6-2.079 1.035-3.245 1.268A5.038 5.038 0 0 0 17.313 0c-2.818 0-5.106 2.345-5.106 5.237 0 .411.044.81.132 1.193C8.094 6.21 4.33 4.128 1.81.956a5.332 5.332 0 0 0-.692 2.636 5.27 5.27 0 0 0 2.273 4.359 5.014 5.014 0 0 1-2.315-.653v.064c0 2.538 1.76 4.656 4.099 5.135a4.976 4.976 0 0 1-2.307.092c.65 2.08 2.535 3.595 4.77 3.635a10.086 10.086 0 0 1-7.561 2.171 14.217 14.217 0 0 0 7.83 2.351c9.395 0 14.531-7.979 14.531-14.9 0-.229-.004-.456-.013-.68a10.478 10.478 0 0 0 2.547-2.71c-.915.416-1.9.698-2.933.824A5.227 5.227 0 0 0 24.286.384"/>
</svg>
