<svg xmlns="http://www.w3.org/2000/svg" width="69" height="29" viewBox="0 0 69 29">
    <g fill="none" fill-rule="evenodd">
        <path fill="#D93738" d="M61.812 1.315c2.764.247 3.455.644 4.183 1.278 1.884 1.642 2.304 6.085 2.367 10.507.013.952.013 1.906 0 2.858-.063 4.421-.483 8.865-2.367 10.507-.728.633-1.419 1.03-4.183 1.278-3.459.309-8.143.352-11.684.357-1.462.003-2.924.003-4.385 0-3.541-.005-8.226-.048-11.685-.357-2.764-.247-3.455-.645-4.182-1.278-1.9-1.656-2.312-6.162-2.369-10.621-.01-.838-.01-1.678-.001-2.516.051-4.496.453-9.065 2.37-10.735.727-.633 1.418-1.031 4.182-1.278 3.46-.309 8.144-.352 11.685-.358 1.461-.002 2.923-.002 4.385 0 0 0 8.225.05 11.684.358z"/>
        <path fill="#1A1919" d="M22.726 22.952h2.379V9.727h-2.379v10.08c-1.712 1.994-2.143.504-2.143-.245V9.727h-2.38v10.305c0 1.682.421 2.754 1.49 2.925.714.113 1.743 0 3.033-1.576v1.57zm-19.228 0H6.18v-7.097L9.37 5.277H6.686l-1.85 6.647-1.852-6.647H.303L3.498 15.87v7.082zm9.32-13.374a3.57 3.57 0 0 1 3.56 3.559v6.256a3.569 3.569 0 0 1-3.56 3.559 3.57 3.57 0 0 1-3.558-3.56v-6.255a3.57 3.57 0 0 1 3.559-3.559zm-1.136 10.136a1.14 1.14 0 0 0 1.137 1.136 1.14 1.14 0 0 0 1.136-1.136v-6.875a1.14 1.14 0 0 0-1.136-1.137 1.14 1.14 0 0 0-1.137 1.137v6.875z"/>
        <path fill="#D93738" d="M60.592 17.072v2.642c0 .428.351.779.779.779a.782.782 0 0 0 .779-.78v-1.829h3.137v1.509a3.927 3.927 0 0 1-3.916 3.916 3.927 3.927 0 0 1-3.917-3.916v-6.256a3.927 3.927 0 0 1 3.917-3.917 3.927 3.927 0 0 1 3.916 3.917v3.935h-4.695zm-4.334 2.394c.07.536.029 1.214-.09 1.731-.264 1.15-.97 1.969-2.19 2.11a2.7 2.7 0 0 1-1.935-.496c-.14-.1-.264-.207-.381-.319v.817h-3.094V4.92h3.094v5.171c.585-.495 1.3-.87 2.05-.87 2.056 0 2.546 1.727 2.546 3.488v6.758zm-4.596.608c.205.2.498.39.774.382.138-.004.294-.027.41-.107.257-.176.286-.638.286-.915 0-3.019.018-6.242.018-6.243v-.013l.002-.013a1.753 1.753 0 0 0-.074-.6c-.097-.301-.271-.484-.6-.506-.32-.021-.601.181-.816.407v7.608zm-7.592 2.222c-.743.703-1.642 1.187-2.73 1.014-1.554-.247-1.792-1.987-1.792-3.278V9.37h3.094v10.192c0 .149.02.305.056.449.032.126.106.338.224.41.091.057.226.005.313-.037.294-.14.604-.451.835-.711V9.37h3.095v13.94H44.07v-1.014zM33.716 8.157h-2.81V4.92h9.018v3.237h-2.81V23.31h-3.398V8.157zm28.434 6.187V12.84a.782.782 0 0 0-.78-.78.782.782 0 0 0-.778.78v1.505h1.558z"/>
        <path fill="#FFFFFE" d="M48.925 22.952h2.38v-1.406c.452.558 1.196 1.571 2.632 1.406 2.402-.278 1.964-3.462 1.964-3.462v-6.782c0-2.236-.79-3.13-2.188-3.13-1.142 0-2.098 1.009-2.409 1.377V5.277h-2.379v17.675zm2.38-2.735v-7.889c.302-.353.709-.658 1.197-.626 1.118.075 1.006 1.49 1.006 1.49s-.019 5.236-.019 6.242c0 1.006-.39 1.36-1.043 1.38-.557.015-1.019-.458-1.142-.597zM46.807 22.952V9.727h-2.379v10.08c-1.712 1.994-2.143.504-2.143-.245V9.727h-2.38v10.305c0 1.682.421 2.754 1.49 2.925.714.113 1.743 0 3.033-1.576v1.57h2.379zM34.074 22.952h2.682V7.8h2.81V5.277h-8.303V7.8h2.81v15.152M61.37 9.578a3.57 3.57 0 0 1 3.56 3.559v3.577h-4.696v3a1.14 1.14 0 0 0 1.137 1.136 1.14 1.14 0 0 0 1.136-1.136v-1.472h2.422v1.15a3.57 3.57 0 0 1-3.558 3.56 3.569 3.569 0 0 1-3.559-3.56v-6.255a3.57 3.57 0 0 1 3.559-3.559zm1.137 5.124v-1.863a1.14 1.14 0 0 0-1.136-1.137 1.14 1.14 0 0 0-1.137 1.137v1.863h2.273z"/>
    </g>
</svg>
